<?xml version="1.0" standalone="no"?><!DOCTYPE svg PUBLIC "-//W3C//DTD SVG 1.1//EN" "http://www.w3.org/Graphics/SVG/1.1/DTD/svg11.dtd"><svg t="1494579060944" class="icon" style="" viewBox="0 0 1024 1024" version="1.1" xmlns="http://www.w3.org/2000/svg" p-id="809" xmlns:xlink="http://www.w3.org/1999/xlink" width="200" height="200"><defs><style type="text/css"></style></defs><path d="M366.444183 99.412298c5.882605 0 10.85322 4.970615 10.85322 10.85322l0 323.025968c0 5.887939-4.970615 10.858554-10.85322 10.858554L43.423548 444.15004c-5.887939 0-10.858554-4.970615-10.858554-10.858554L32.564994 110.265518c0-5.882605 4.970615-10.85322 10.858554-10.85322L366.444183 99.412298M366.444183 66.847304 43.423548 66.847304C19.546463 66.847304 0.005333 86.388433 0.005333 110.265518l0 323.025968c0 23.882418 19.54113 43.418214 43.418214 43.418214l323.015302 0c23.877085 0 43.418214-19.54113 43.418214-43.418214L409.857064 110.265518C409.857064 86.388433 390.326601 66.847304 366.444183 66.847304L366.444183 66.847304z" p-id="810"></path><path d="M752.221498 32.559661c1.701316 0 4.954615 0.405329 7.674587 3.125301l228.408287 228.418954c4.154623 4.16529 4.154623 11.19455 0 15.34384l-228.408287 228.429621c-2.725305 2.714638-5.978604 3.125301-7.674587 3.125301-1.690649 0-4.949282-0.410662-7.669253-3.125301l-228.424287-228.429621c-4.154623-4.16529-4.154623-11.189217 0.010667-15.34384L744.552244 35.684962C747.272216 32.970323 750.525515 32.559661 752.221498 32.559661M752.221498 0c-11.130551 0-22.261101 4.223956-30.698347 12.666535L493.10953 241.080155c-16.885157 16.885157-16.890491 44.511536-0.010667 61.396694l228.424287 228.424287c8.447912 8.442579 19.562463 12.666535 30.698347 12.666535 11.130551 0 22.261101-4.223956 30.693014-12.666535l228.413621-228.418954c16.885157-16.885157 16.885157-44.51687 0-61.396694L782.919845 12.666535C774.482599 4.223956 763.352048 0 752.221498 0L752.221498 0z" p-id="811"></path><path d="M913.734482 646.70793c5.887939 0 10.85322 4.975948 10.85322 10.85322l0 323.020635c0 5.882605-4.970615 10.85322-10.85322 10.85322l-323.031302 0c-5.887939 0-10.85322-4.975948-10.85322-10.85322l0-323.020635c0-5.882605 4.970615-10.85322 10.85322-10.85322L913.734482 646.70793M913.734482 614.142936l-323.031302 0c-23.882418 0-43.423548 19.535797-43.423548 43.418214l0 323.020635c0 23.882418 19.54113 43.418214 43.423548 43.418214l323.031302 0c23.882418 0 43.423548-19.535797 43.423548-43.418214l0-323.020635C957.15803 633.678733 937.622233 614.142936 913.734482 614.142936L913.734482 614.142936z" p-id="812"></path><path d="M366.444183 646.70793c5.882605 0 10.85322 4.975948 10.85322 10.85322l0 323.020635c0 5.882605-4.970615 10.85322-10.85322 10.85322L43.423548 991.435006c-5.887939 0-10.858554-4.975948-10.858554-10.85322l0-323.020635c0-5.882605 4.970615-10.85322 10.858554-10.85322L366.444183 646.70793M366.444183 614.142936 43.423548 614.142936c-23.882418 0-43.418214 19.535797-43.418214 43.418214l0 323.020635c0 23.882418 19.54113 43.418214 43.418214 43.418214l323.015302 0c23.877085 0 43.418214-19.535797 43.418214-43.418214l0-323.020635C409.857064 633.678733 390.326601 614.142936 366.444183 614.142936L366.444183 614.142936z" p-id="813"></path></svg>